<svg width="80" height="80" viewBox="0 0 80 80" fill="none" xmlns="http://www.w3.org/2000/svg">
<path d="M3.99883 5.41491C2.87627 19.9105 2.85047 34.5636 3.19332 49.0933C3.33341 55.0351 3.16198 60.976 3.33249 66.9067C3.44769 70.9159 4.66426 74.9158 8.29644 76.9683C11.5987 78.8337 16.205 78.3203 19.7985 78.0669C26.5495 77.5913 33.3558 77.2227 40.1234 77.4144C46.3768 77.5913 52.6227 78.7305 58.8622 77.619C62.1921 77.0254 65.3137 76.337 68.6971 76.7019C70.6067 76.9075 72.4702 77.0669 74.1624 76.043C79.5042 72.8098 77.825 61.635 77.4711 56.7106C76.7052 46.0583 76.6775 35.4724 76.5586 24.7841C76.4987 19.4017 77.5724 13.3502 76.2481 8.09596C75.2766 4.2435 71.4067 3.34951 68.0104 2.92463C53.5121 1.10992 38.4977 2.49884 23.9311 2.65552C17.4271 2.72464 11.3646 3.53568 4.92416 4.26286C3.4652 4.42783 3.44861 6.73377 4.92416 6.56696C10.6992 5.91444 16.2778 5.00385 22.1118 4.97344C28.7403 4.93934 35.3687 4.77897 41.9962 4.66193C48.3906 4.55041 54.7913 4.42599 61.1829 4.68958C64.3294 4.81953 67.5413 5.0315 70.6353 5.64716C74.873 6.49046 74.4472 11.1936 74.3338 14.3779C73.9357 25.5196 73.8426 37.0548 74.4647 48.1836C74.8766 55.5521 76.448 63.2276 74.8352 70.5454C73.5836 76.2208 67.9699 73.9057 63.6584 74.4144C57.2558 75.1702 51.62 75.9278 45.1519 75.4356C34.4019 74.6172 23.6685 76.607 12.9904 75.8531C5.16747 75.3001 5.43751 67.2791 5.72414 61.2986C6.0034 55.4821 5.46793 49.6785 5.41263 43.8565C5.29005 31.0466 5.31401 18.1925 6.30293 5.41491C6.41722 3.93291 4.11311 3.94305 3.99883 5.41491Z" fill="#4499FF"/>
<path d="M39.1956 3.38367C39.1965 14.9291 39.2776 26.4652 39.8204 38.0014C40.0951 43.8197 40.3504 49.6316 40.2951 55.4573C40.2333 62.0369 40.4923 69.0026 39.4647 75.5057C39.2343 76.9582 41.4545 77.5822 41.6858 76.1177C42.4959 70.998 42.2416 65.8561 42.4029 60.6949C42.6047 54.2739 42.5743 47.9127 42.2895 41.4926C41.7255 28.785 41.5006 16.1032 41.4997 3.38367C41.4997 1.89799 39.1956 1.89799 39.1956 3.38367Z" fill="#4499FF"/>
<path d="M73.6049 40.4759C71.5331 42.3514 68.6843 41.2205 66.3498 40.9321C63.6438 40.5984 60.9001 40.5763 58.1767 40.5109C52.2975 40.3689 46.4368 39.9478 40.5604 39.8086C34.6896 39.6694 28.8077 39.9819 22.9424 40.1855C16.7711 40.3994 11.2836 39.8961 5.23029 38.8243C3.77778 38.5671 3.15659 40.7874 4.61832 41.0454C10.9647 42.1689 16.4494 42.6961 22.9424 42.4887C29.9892 42.2638 37.0204 41.9505 44.071 42.2196C51.1667 42.4906 58.3085 42.6629 65.395 43.1173C68.9848 43.3468 72.2474 44.8103 75.2353 42.1035C76.3376 41.1063 74.7035 39.4814 73.6049 40.4759Z" fill="#4499FF"/>
<path d="M20.4675 16.9215C20.4841 20.4579 20.6777 23.9896 20.6943 27.5259C20.7016 29.0107 23.0057 29.0116 22.9984 27.5259C22.9809 23.9896 22.7873 20.4579 22.7716 16.9215C22.7643 15.4368 20.4602 15.4359 20.4675 16.9215Z" fill="#4499FF"/>
<path d="M15.0767 22.8118C19.4111 22.8708 23.8378 23.8984 28.164 23.3749C29.6192 23.1989 29.6377 20.8929 28.164 21.0708C23.8378 21.5934 19.4111 20.5667 15.0767 20.5077C13.5901 20.4883 13.5919 22.7924 15.0767 22.8118Z" fill="#4499FF"/>
<path d="M52.2271 22.9952C56.1339 23.6726 60.085 23.7132 64.0398 23.7141C65.5255 23.7141 65.5255 21.41 64.0398 21.41C60.2979 21.4091 56.5358 21.4146 52.8391 20.774C51.3866 20.5224 50.7645 22.7427 52.2271 22.9952Z" fill="#4499FF"/>
<path d="M52.0818 59.8147C55.9619 59.7686 59.8705 59.1962 63.735 59.7732C65.1875 59.9907 65.8123 57.7705 64.3469 57.552C60.2558 56.9401 56.1913 57.4617 52.0818 57.5106C50.5961 57.5281 50.5942 59.8322 52.0818 59.8147Z" fill="#4499FF"/>
<path d="M56.2881 55.2619C56.2521 55.2555 55.9047 54.9937 56.1084 55.1615C56.2365 55.2656 56.3673 55.3661 56.5019 55.4619C56.7922 55.6693 57.1526 55.7237 57.4973 55.7541C57.8678 55.7872 58.3304 55.5172 58.4917 55.1836C58.8005 54.5476 59.0521 53.7993 58.4733 53.2196C58.2125 52.9587 57.8954 52.8813 57.5397 52.85C57.4788 52.8444 57.4143 52.8481 57.3526 52.8463C57.6447 52.8546 57.4622 52.861 57.3516 52.814C56.7719 52.5698 56.0853 53.0721 55.9351 53.6186C55.7517 54.2841 56.1609 54.7919 56.7397 55.0352C56.912 55.108 57.0927 55.1292 57.2798 55.1439C57.3268 55.1495 57.3738 55.1522 57.4208 55.1522C57.7277 55.1615 57.3719 55.2103 57.0761 55.0297C56.9397 54.8914 56.8005 54.7532 56.6632 54.6158C56.4097 54.2232 56.6761 53.6619 56.5019 54.0205C56.8328 53.8306 57.1655 53.6398 57.4963 53.45C57.7793 53.555 57.8346 53.5624 57.6641 53.4712C57.8678 53.591 57.6337 53.4472 57.5977 53.4177C57.3839 53.25 57.1793 53.0878 56.9 53.0398C56.2816 52.9338 55.6614 53.1947 55.4835 53.8444C55.3296 54.4039 55.6678 55.1568 56.2881 55.2619Z" fill="#4499FF"/>
<path d="M56.3449 62.2727C56.3302 62.6284 56.4002 62.0607 56.3265 62.4266C56.3025 62.5519 56.2712 62.6763 56.2445 62.8008C56.1689 63.1454 56.1274 63.5012 56.1173 63.8533C56.0998 64.4818 56.6546 65.0053 57.2693 65.0053C57.4196 65.0053 57.5707 65.0053 57.7209 65.0053C58.1007 65.0053 58.5449 64.7924 58.7154 64.4348C59.0693 63.6966 59.2592 63.0275 58.9099 62.2515C58.791 61.9869 58.4988 61.7676 58.2666 61.6164C58.2048 61.5768 58.1394 61.5427 58.0776 61.504C57.9808 61.4395 58.0159 61.4671 58.1808 61.5879C58.2979 61.7584 58.3246 61.7934 58.2638 61.692C57.5136 60.4109 55.521 61.5704 56.2749 62.8551C56.4629 63.1768 56.7403 63.3943 57.0564 63.5777C57.1385 63.6256 57.2712 63.7482 57.0002 63.5215C57.1182 63.6192 56.8592 63.2957 56.8445 63.2487C56.8251 63.1842 56.8758 62.7888 56.815 63.0422C56.7588 63.2754 56.8601 62.9934 56.7265 63.2717C57.0574 63.0819 57.3901 62.8911 57.7209 62.7012C57.5707 62.7012 57.4196 62.7012 57.2693 62.7012C57.6537 63.0855 58.0371 63.4689 58.4214 63.8533C58.4352 63.3473 58.6269 62.8247 58.6481 62.2727C58.6721 61.6441 58.1053 61.1206 57.4961 61.1206C56.85 61.1206 56.3689 61.645 56.3449 62.2727Z" fill="#4499FF"/>
<path d="M24.9134 53.5697C23.0167 57.377 19.8324 60.199 16.9707 63.2635C15.9569 64.3483 17.5836 65.9805 18.6002 64.893C21.5919 61.6903 24.9208 58.7134 26.9033 54.7337C27.5632 53.4065 25.5761 52.2398 24.9134 53.5697Z" fill="#4499FF"/>
<path d="M16.5278 56.049C20.1544 58.2047 22.4484 61.9485 26.005 64.1705C27.2695 64.9595 28.4252 62.9659 27.1681 62.1816C23.6244 59.9688 21.3249 56.2214 17.6909 54.0601C16.4098 53.2979 15.2522 55.2905 16.5278 56.049Z" fill="#4499FF"/>
</svg>
