<svg width="80" height="80" viewBox="0 0 80 80" fill="none" xmlns="http://www.w3.org/2000/svg">
<path d="M41.982 8.73164C37.3122 13.5574 29.5925 15.4069 23.7017 18.4549C16.7457 22.0548 9.72168 26.2983 1.83665 27.3748C0.722369 27.526 0.81877 29.0325 1.55406 29.5334C6.52816 32.9283 11.8066 35.7844 17.2655 38.3163C18.6378 38.9533 19.839 36.9176 18.4582 36.2768C12.9993 33.7439 7.72088 30.8878 2.74679 27.4939C2.65228 28.2141 2.55871 28.9324 2.4642 29.6525C10.0449 28.6186 16.9395 24.6671 23.6138 21.1645C30.0604 17.782 38.5021 15.7245 43.652 10.4026C44.7114 9.30721 43.0433 7.63437 41.982 8.73164Z" fill="#4499FF"/>
<path d="M23.5563 43.5164C28.9198 44.694 33.0877 48.5113 38.5703 49.5074C42.672 50.2531 46.6216 48.7646 50.1847 46.8857C54.7543 44.4766 58.944 41.406 63.5419 39.0224C67.9168 36.7551 72.4372 35.121 76.0844 31.6865C77.417 30.4314 79.914 27.2426 78.656 25.2191C76.8178 22.261 71.8843 21.5134 69.0679 19.9076C60.1631 14.8324 51.6808 7.43034 40.968 7.00126C39.4445 6.94078 39.4502 9.30354 40.968 9.36403C49.6526 9.71183 57.187 15.2596 64.2762 19.7479C67.122 21.5483 69.9696 23.1134 73.0865 24.3865C80.034 27.2256 71.8059 32.3396 68.2145 34.1967C61.664 37.584 55.3989 41.1943 48.992 44.8462C44.9488 47.1503 40.9529 47.8251 36.4353 46.6022C32.0727 45.4217 28.6571 42.2197 24.1839 41.2387C22.6991 40.9126 22.0678 43.1903 23.5563 43.5164Z" fill="#4499FF"/>
<path d="M43.1445 27.0329C37.8093 30.3247 32.9883 34.4151 27.5738 37.5595C24.919 39.1019 22.6536 40.3429 21.4079 43.2651C19.5622 47.5928 16.878 58.659 23.5562 60.1551C24.1525 60.2893 24.8737 59.9822 25.0088 59.3301C25.5825 56.5751 24.6345 49.8525 20.7237 54.0195C19.6822 55.129 21.3493 56.8028 22.3946 55.6904C23.2396 56.542 23.352 57.5457 22.7311 58.7034C23.2159 58.4284 23.6989 58.1534 24.1837 57.8784C18.9752 56.7112 22.768 43.6517 25.6477 41.4675C27.7638 39.8618 30.2825 38.7787 32.4591 37.2391C36.3879 34.4615 40.2383 31.6035 44.3362 29.0734C45.631 28.2738 44.4449 26.2296 43.1445 27.0329Z" fill="#4499FF"/>
<path d="M21.1131 59.33C22.0526 63.7389 20.7474 68.334 21.8059 72.7307C22.1622 74.2117 24.4408 73.5832 24.0836 72.1031C23.0326 67.7358 24.3331 63.117 23.3908 58.7025C23.0742 57.212 20.7965 57.8434 21.1131 59.33Z" fill="#4499FF"/>
<path d="M17.2654 38.7766C19.0082 39.9476 20.6168 41.2783 22.1101 42.7536C23.1941 43.8254 24.866 42.1544 23.781 41.0827C22.1469 39.4684 20.3644 38.0177 18.4582 36.7361C17.1898 35.8836 16.0084 37.9317 17.2654 38.7766Z" fill="#4499FF"/>
<path d="M14.3699 37.2957C14.3699 42.6866 14.3699 48.0784 14.3699 53.4693C14.3699 54.1583 14.9105 54.5912 15.5513 54.6507C16.6391 54.7528 17.6976 55.0089 18.7864 55.111C20.3033 55.2537 20.29 52.889 18.7864 52.7482C17.6995 52.6461 16.64 52.39 15.5513 52.2879C15.9454 52.6821 16.3385 53.0752 16.7326 53.4693C16.7326 48.0784 16.7326 42.6866 16.7326 37.2957C16.7326 35.7722 14.3699 35.7722 14.3699 37.2957Z" fill="#4499FF"/>
<path d="M25.2543 59.7335C28.7616 59.9811 31.0072 61.9337 34.1837 62.9289C37.1267 63.8514 39.9583 64.494 43.0469 64.4723C48.1883 64.4354 53.651 62.1086 58.1213 59.7212C66.9524 55.0033 71.0958 46.1552 69.8766 36.3733C69.6913 34.8819 67.3257 34.864 67.5138 36.3733C68.7387 46.1968 64.4743 53.6489 55.8275 58.2696C50.9829 60.8573 44.9267 62.6615 39.4337 61.877C34.3708 61.155 30.3909 57.7337 25.2543 57.3708C23.7336 57.263 23.744 59.6258 25.2543 59.7335Z" fill="#4499FF"/>
</svg>
