<svg width="260" height="41" viewBox="0 0 260 41" fill="none" xmlns="http://www.w3.org/2000/svg">
<path d="M71.7133 35.8945L68.2862 31.7972C67.3378 32.0338 66.3678 32.1521 65.3763 32.1521C63.264 32.1521 61.3241 31.6574 59.5567 30.668C57.7892 29.6786 56.3882 28.3128 55.3536 26.5707C54.319 24.807 53.8017 22.8175 53.8017 20.6022C53.8017 18.4083 54.319 16.4403 55.3536 14.6982C56.3882 12.9345 57.7892 11.558 59.5567 10.5686C61.3241 9.57921 63.264 9.08452 65.3763 9.08452C67.5102 9.08452 69.4501 9.57921 71.196 10.5686C72.9634 11.558 74.3537 12.9345 75.3667 14.6982C76.4013 16.4403 76.9186 18.4083 76.9186 20.6022C76.9186 22.6024 76.4876 24.4306 75.6254 26.0868C74.7848 27.7214 73.6316 29.0549 72.1659 30.0873L77.3389 35.8945H71.7133ZM58.4574 20.6022C58.4574 22.1077 58.7484 23.4305 59.3304 24.5704C59.9123 25.7104 60.7206 26.5922 61.7552 27.2159C62.8114 27.8182 64.0184 28.1193 65.3763 28.1193C66.7342 28.1193 67.9305 27.8182 68.9651 27.2159C69.9997 26.5922 70.808 25.7104 71.39 24.5704C71.9719 23.4305 72.2629 22.1077 72.2629 20.6022C72.2629 19.0966 71.9719 17.7846 71.39 16.6662C70.808 15.5262 69.9997 14.6551 68.9651 14.0529C67.9305 13.4507 66.7342 13.1496 65.3763 13.1496C64.0184 13.1496 62.8114 13.4507 61.7552 14.0529C60.7206 14.6551 59.9123 15.5262 59.3304 16.6662C58.7484 17.7846 58.4574 19.0966 58.4574 20.6022Z" fill="white"/>
<path d="M97.2586 14.0529V31.9262H92.6999V29.6679C92.1179 30.4422 91.3528 31.0551 90.4044 31.5068C89.4775 31.937 88.4645 32.1521 87.3652 32.1521C85.9642 32.1521 84.7248 31.8617 83.6471 31.281C82.5694 30.6788 81.718 29.8077 81.0929 28.6677C80.4894 27.5063 80.1876 26.1298 80.1876 24.5382V14.0529H84.714V23.8929C84.714 25.3125 85.0697 26.4094 85.781 27.1837C86.4923 27.9365 87.4622 28.3129 88.6908 28.3129C89.941 28.3129 90.9217 27.9365 91.633 27.1837C92.3442 26.4094 92.6999 25.3125 92.6999 23.8929V14.0529H97.2586Z" fill="white"/>
<path d="M100.561 22.925C100.561 21.1184 100.916 19.516 101.628 18.118C102.361 16.7199 103.341 15.6445 104.57 14.8917C105.82 14.139 107.21 13.7626 108.741 13.7626C110.077 13.7626 111.241 14.0314 112.232 14.5691C113.245 15.1068 114.054 15.7843 114.657 16.6016V14.0529H119.216V31.9262H114.657V29.313C114.075 30.1518 113.267 30.8508 112.232 31.41C111.219 31.9477 110.045 32.2166 108.708 32.2166C107.199 32.2166 105.82 31.8294 104.57 31.0551C103.341 30.2808 102.361 29.1947 101.628 27.7967C100.916 26.3771 100.561 24.7532 100.561 22.925ZM114.657 22.9896C114.657 21.8927 114.442 20.957 114.011 20.1828C113.58 19.3869 112.998 18.7847 112.265 18.3761C111.532 17.9459 110.745 17.7308 109.904 17.7308C109.064 17.7308 108.288 17.9351 107.577 18.3438C106.865 18.7525 106.283 19.3547 105.831 20.1505C105.4 20.9248 105.184 21.8496 105.184 22.925C105.184 24.0005 105.4 24.9468 105.831 25.7641C106.283 26.5599 106.865 27.1729 107.577 27.6031C108.309 28.0332 109.085 28.2483 109.904 28.2483C110.745 28.2483 111.532 28.044 112.265 27.6353C112.998 27.2052 113.58 26.603 114.011 25.8287C114.442 25.0329 114.657 24.0865 114.657 22.9896Z" fill="white"/>
<path d="M133.562 13.7948C135.696 13.7948 137.421 14.4723 138.736 15.8273C140.05 17.1609 140.708 19.0321 140.708 21.441V31.9262H136.181V22.054C136.181 20.6344 135.826 19.5483 135.114 18.7955C134.403 18.0212 133.433 17.634 132.205 17.634C130.954 17.634 129.963 18.0212 129.23 18.7955C128.519 19.5483 128.163 20.6344 128.163 22.054V31.9262H123.637V14.0529H128.163V16.279C128.767 15.5047 129.532 14.9025 130.459 14.4723C131.407 14.0207 132.442 13.7948 133.562 13.7948Z" fill="white"/>
<path d="M150.282 17.7631V26.4094C150.282 27.0116 150.422 27.4525 150.702 27.7321C151.004 27.9902 151.5 28.1193 152.19 28.1193H154.291V31.9262H151.446C147.631 31.9262 145.723 30.0765 145.723 26.3771V17.7631H143.59V14.0529H145.723V9.63298H150.282V14.0529H154.291V17.7631H150.282Z" fill="white"/>
<path d="M174.456 14.0529V31.9262H169.897V29.6679C169.315 30.4422 168.55 31.0551 167.602 31.5068C166.675 31.937 165.662 32.1521 164.563 32.1521C163.162 32.1521 161.922 31.8617 160.845 31.281C159.767 30.6788 158.916 29.8077 158.29 28.6677C157.687 27.5063 157.385 26.1298 157.385 24.5382V14.0529H161.912V23.8929C161.912 25.3125 162.267 26.4094 162.979 27.1837C163.69 27.9365 164.66 28.3129 165.888 28.3129C167.138 28.3129 168.119 27.9365 168.83 27.1837C169.542 26.4094 169.897 25.3125 169.897 23.8929V14.0529H174.456Z" fill="white"/>
<path d="M201.166 13.7948C203.365 13.7948 205.132 14.4723 206.469 15.8273C207.826 17.1609 208.505 19.0321 208.505 21.441V31.9262H203.979V22.054C203.979 20.6559 203.623 19.5913 202.912 18.86C202.201 18.1072 201.231 17.7308 200.002 17.7308C198.774 17.7308 197.793 18.1072 197.06 18.86C196.349 19.5913 195.993 20.6559 195.993 22.054V31.9262H191.467V22.054C191.467 20.6559 191.111 19.5913 190.4 18.86C189.689 18.1072 188.719 17.7308 187.49 17.7308C186.24 17.7308 185.248 18.1072 184.516 18.86C183.804 19.5913 183.449 20.6559 183.449 22.054V31.9262H178.922V14.0529H183.449V16.2145C184.031 15.4617 184.774 14.8702 185.679 14.4401C186.606 14.0099 187.619 13.7948 188.719 13.7948C190.12 13.7948 191.37 14.0959 192.469 14.6982C193.568 15.2789 194.42 16.1177 195.023 17.2146C195.605 16.1822 196.446 15.3542 197.545 14.7304C198.666 14.1067 199.873 13.7948 201.166 13.7948Z" fill="white"/>
<path d="M233.308 20.3763C234.58 20.6129 235.625 21.2474 236.444 22.2798C237.263 23.3122 237.673 24.4951 237.673 25.8287C237.673 27.0331 237.371 28.0978 236.767 29.0226C236.185 29.926 235.334 30.6357 234.213 31.1519C233.092 31.6681 231.767 31.9262 230.236 31.9262H220.505V9.40715H229.816C231.346 9.40715 232.661 9.65449 233.761 10.1492C234.881 10.6439 235.722 11.3321 236.282 12.214C236.864 13.0958 237.155 14.0959 237.155 15.2144C237.155 16.5264 236.8 17.6233 236.088 18.5051C235.399 19.3869 234.472 20.0107 233.308 20.3763ZM225.031 18.6987H229.169C230.247 18.6987 231.077 18.4621 231.659 17.9889C232.241 17.4942 232.532 16.7952 232.532 15.8919C232.532 14.9885 232.241 14.2895 231.659 13.7948C231.077 13.3001 230.247 13.0528 229.169 13.0528H225.031V18.6987ZM229.59 28.2483C230.689 28.2483 231.54 27.9902 232.144 27.474C232.769 26.9578 233.082 26.2266 233.082 25.2802C233.082 24.3123 232.758 23.5595 232.112 23.0218C231.465 22.4626 230.592 22.183 229.493 22.183H225.031V28.2483H229.59Z" fill="white"/>
<path d="M260 9.40715V31.9262H255.474V22.3443H245.807V31.9262H241.28V9.40715H245.807V18.6664H255.474V9.40715H260Z" fill="white"/>
<path d="M0 20.3036C0 31.5169 9.04704 40.6072 20.2071 40.6072C22.5898 40.6072 24.8761 40.1928 26.9986 39.4319C25.2841 38.1341 24.1214 36.1394 23.9275 33.8668L23.9267 33.8576C22.7423 34.185 21.4951 34.3599 20.2071 34.3599C12.4809 34.3599 6.21758 28.0667 6.21758 20.3036C6.21758 12.5405 12.4809 6.24725 20.2071 6.24725C27.9333 6.24725 34.1967 12.5405 34.1967 20.3036C34.1967 22.1515 33.8418 23.9161 33.1968 25.5323C35.396 25.9723 37.2607 27.3446 38.3655 29.222C39.6776 26.53 40.4143 23.5032 40.4143 20.3036C40.4143 9.09022 31.3672 0 20.2071 0C9.04704 0 0 9.09022 0 20.3036Z" fill="#FFC800"/>
<path d="M31.6708 41C35.9631 41 39.4428 37.5038 39.4428 33.1909C39.4428 31.7445 39.0514 30.39 38.3692 29.2283C38.2619 29.4509 38.1346 29.6957 37.9878 29.9585C36.6848 32.3759 34.9078 34.4976 32.782 36.1978C31.1476 37.5629 29.2092 38.7536 27.0037 39.4358C28.3033 40.4179 29.9194 41 31.6708 41Z" fill="#FFC800"/>
<path d="M31.6708 25.3819C27.3784 25.3819 23.8988 28.8781 23.8988 33.1909C23.8988 33.4155 23.9082 33.6379 23.9267 33.8576C24.0302 33.829 24.1332 33.7993 24.2356 33.7684C26.0039 33.1713 28.9603 31.6547 31.114 29.1068C31.9454 28.0681 32.6329 26.9082 33.146 25.6577C33.1613 25.6157 33.1764 25.5735 33.1912 25.5312C32.6995 25.4332 32.1911 25.3819 31.6708 25.3819Z" fill="#FFC800"/>
<path d="M37.9878 29.9585C36.6848 32.3759 34.9078 34.4976 32.782 36.1978C35.2565 34.1312 37.0342 31.6649 37.9878 29.9585Z" fill="#FFC800"/>
<path d="M24.2356 33.7684C26.0039 33.1713 28.9603 31.6547 31.114 29.1068C29.3642 31.2927 26.9769 32.9415 24.2356 33.7684Z" fill="#FFC800"/>
<path d="M31.114 29.1068C31.9454 28.0681 32.6329 26.9082 33.146 25.6577C32.6684 26.9679 31.9519 28.1154 31.114 29.1068Z" fill="#FFC800"/>
<path d="M38.3692 29.2283L38.3655 29.222C38.2445 29.4704 38.1185 29.716 37.9878 29.9585C38.1346 29.6957 38.2619 29.4509 38.3692 29.2283Z" fill="#FFC800"/>
<path d="M26.9986 39.4319L27.0037 39.4358C29.2092 38.7536 31.1476 37.5629 32.782 36.1978C31.0607 37.5745 29.1107 38.6748 26.9986 39.4319Z" fill="#FFC800"/>
<path fill-rule="evenodd" clip-rule="evenodd" d="M33.1912 25.5312L33.1968 25.5323C33.1801 25.5742 33.1631 25.616 33.146 25.6577C33.1613 25.6157 33.1764 25.5735 33.1912 25.5312ZM24.2356 33.7684C24.1332 33.7993 24.0302 33.829 23.9267 33.8576L23.9275 33.8668C24.0256 33.8374 24.1284 33.8046 24.2356 33.7684Z" fill="#17222D"/>
</svg>
