<svg width="48" height="49" viewBox="0 0 48 49" fill="none" xmlns="http://www.w3.org/2000/svg">
<path d="M37.6154 49C42.7134 49 46.8462 44.8216 46.8462 39.6672C46.8462 37.9386 46.3813 36.3197 45.5711 34.9314C45.4437 35.1974 45.2925 35.49 45.118 35.8041C43.5705 38.6931 41.46 41.2288 38.9352 43.2608C36.994 44.8922 34.6918 46.3152 32.0723 47.1306C33.6158 48.3043 35.5352 49 37.6154 49Z" fill="#FFC800"/>
<path d="M37.6154 30.3344C32.5174 30.3344 28.3846 34.5129 28.3846 39.6672C28.3846 39.9356 28.3958 40.2013 28.4178 40.464C28.5406 40.4298 28.6629 40.3942 28.7847 40.3573C30.8848 39.6437 34.3961 37.8312 36.9541 34.7862C37.9415 33.5449 38.7581 32.1586 39.3675 30.6641C39.3857 30.6139 39.4036 30.5635 39.4212 30.5129C38.8372 30.3958 38.2334 30.3344 37.6154 30.3344Z" fill="#FFC800"/>
<path d="M0 24.2652C0 37.6666 10.7452 48.5305 24 48.5305C26.8298 48.5305 29.5453 48.0353 32.0662 47.126C30.0299 45.5749 28.649 43.191 28.4187 40.475L28.4178 40.464C27.0111 40.8553 25.5297 41.0643 24 41.0643C14.8236 41.0643 7.38461 33.5431 7.38461 24.2652C7.38461 14.9874 14.8236 7.46623 24 7.46623C33.1764 7.46623 40.6154 14.9874 40.6154 24.2652C40.6154 26.4737 40.1939 28.5826 39.4278 30.5143C42.0398 31.04 44.2545 32.6802 45.5667 34.9239C47.1251 31.7066 48 28.0892 48 24.2652C48 10.8639 37.2548 0 24 0C10.7452 0 0 10.8639 0 24.2652Z" fill="#FFC800"/>
<path d="M32.0662 47.126L32.0723 47.1306C34.6918 46.3152 36.994 44.8922 38.9352 43.2608C36.8908 44.9061 34.5748 46.2211 32.0662 47.126Z" fill="#FFC800"/>
<path d="M28.7847 40.3573C30.8848 39.6437 34.3961 37.8312 36.9541 34.7862C34.8758 37.3986 32.0404 39.3691 28.7847 40.3573Z" fill="#FFC800"/>
<path d="M36.9541 34.7862C37.9415 33.5449 38.7581 32.1586 39.3675 30.6641C38.8002 32.2299 37.9493 33.6013 36.9541 34.7862Z" fill="#FFC800"/>
<path d="M45.5711 34.9314L45.5667 34.9239C45.4229 35.2207 45.2733 35.5142 45.118 35.8041C45.2925 35.49 45.4437 35.1974 45.5711 34.9314Z" fill="#FFC800"/>
<path d="M45.118 35.8041C43.5705 38.6931 41.46 41.2288 38.9352 43.2608C41.8741 40.7909 43.9855 37.8434 45.118 35.8041Z" fill="#FFC800"/>
<path fill-rule="evenodd" clip-rule="evenodd" d="M39.4278 30.5143L39.4212 30.5129C39.4036 30.5635 39.3857 30.6139 39.3675 30.6641C39.3879 30.6142 39.4079 30.5643 39.4278 30.5143ZM28.4187 40.475L28.4178 40.464C28.5406 40.4298 28.6629 40.3942 28.7847 40.3573C28.6573 40.4006 28.5352 40.4398 28.4187 40.475Z" fill="#FFC800"/>
</svg>
