<svg width="1162" height="33" viewBox="0 0 1162 33" fill="none" xmlns="http://www.w3.org/2000/svg">
<g clip-path="url(#clip0_420_68)">
<path d="M0.966797 11C33.1927 -2.33333 65.4187 -2.33333 97.6445 11C129.87 24.3333 162.097 24.3333 194.322 11C226.548 -2.33332 258.774 -2.33332 291 11C323.226 24.3333 355.452 24.3333 387.678 11C419.903 -2.33332 452.13 -2.33331 484.356 11C516.581 24.3333 548.808 24.3333 581.033 11" stroke="#CCDDEE"/>
<path d="M0.966797 12C33.1927 -1.33333 65.4187 -1.33333 97.6445 12C129.87 25.3333 162.097 25.3333 194.322 12C226.548 -1.33332 258.774 -1.33332 291 12C323.226 25.3333 355.452 25.3333 387.678 12C419.903 -1.33332 452.13 -1.33331 484.356 12C516.581 25.3333 548.808 25.3333 581.033 12" stroke="#CCDDEE"/>
</g>
<g clip-path="url(#clip1_420_68)">
<path d="M0.966797 21C33.1927 7.66667 65.4187 7.66667 97.6445 21C129.87 34.3333 162.097 34.3333 194.322 21C226.548 7.66668 258.774 7.66668 291 21C323.226 34.3333 355.452 34.3333 387.678 21C419.903 7.66668 452.13 7.66669 484.356 21C516.581 34.3333 548.808 34.3333 581.033 21" stroke="#CCDDEE"/>
<path d="M0.966797 22C33.1927 8.66667 65.4187 8.66667 97.6445 22C129.87 35.3333 162.097 35.3333 194.322 22C226.548 8.66668 258.774 8.66668 291 22C323.226 35.3333 355.452 35.3333 387.678 22C419.903 8.66668 452.13 8.66669 484.356 22C516.581 35.3333 548.808 35.3333 581.033 22" stroke="#CCDDEE"/>
</g>
<g clip-path="url(#clip2_420_68)">
<path d="M580.967 11C613.193 -2.33333 645.419 -2.33333 677.645 11C709.87 24.3333 742.097 24.3333 774.322 11C806.548 -2.33332 838.774 -2.33332 871 11C903.226 24.3333 935.452 24.3333 967.678 11C999.903 -2.33332 1032.13 -2.33331 1064.36 11C1096.58 24.3333 1128.81 24.3333 1161.03 11" stroke="#CCDDEE"/>
<path d="M580.967 12C613.193 -1.33333 645.419 -1.33333 677.645 12C709.87 25.3333 742.097 25.3333 774.322 12C806.548 -1.33332 838.774 -1.33332 871 12C903.226 25.3333 935.452 25.3333 967.678 12C999.903 -1.33332 1032.13 -1.33331 1064.36 12C1096.58 25.3333 1128.81 25.3333 1161.03 12" stroke="#CCDDEE"/>
</g>
<g clip-path="url(#clip3_420_68)">
<path d="M580.967 21C613.193 7.66667 645.419 7.66667 677.645 21C709.87 34.3333 742.097 34.3333 774.322 21C806.548 7.66668 838.774 7.66668 871 21C903.226 34.3333 935.452 34.3333 967.678 21C999.903 7.66668 1032.13 7.66669 1064.36 21C1096.58 34.3333 1128.81 34.3333 1161.03 21" stroke="#CCDDEE"/>
<path d="M580.967 22C613.193 8.66667 645.419 8.66667 677.645 22C709.87 35.3333 742.097 35.3333 774.322 22C806.548 8.66668 838.774 8.66668 871 22C903.226 35.3333 935.452 35.3333 967.678 22C999.903 8.66668 1032.13 8.66669 1064.36 22C1096.58 35.3333 1128.81 35.3333 1161.03 22" stroke="#CCDDEE"/>
</g>
<defs>
<clipPath id="clip0_420_68">
<rect width="582" height="23" fill="white"/>
</clipPath>
<clipPath id="clip1_420_68">
<rect width="582" height="23" fill="white" transform="translate(0 10)"/>
</clipPath>
<clipPath id="clip2_420_68">
<rect width="582" height="23" fill="white" transform="translate(580)"/>
</clipPath>
<clipPath id="clip3_420_68">
<rect width="582" height="23" fill="white" transform="translate(580 10)"/>
</clipPath>
</defs>
</svg>
