<svg width="80" height="80" viewBox="0 0 80 80" fill="none" xmlns="http://www.w3.org/2000/svg">
<path d="M66.0226 5.2915C68.977 7.63844 72.3029 9.4488 75.0436 12.058C75.0436 11.5083 75.0436 10.9587 75.0436 10.4081C69.2486 14.9555 62.9468 18.5893 55.836 14.4133C51.9269 12.1177 55.5738 10.0031 57.6296 8.38965C60.2901 6.30213 62.539 2.78685 66.2587 5.47347C67.4811 6.35625 68.6439 4.33126 67.4363 3.45967C63.656 0.73013 61.0702 2.15696 57.931 5.04234C56.0553 6.76592 50.4767 9.48146 51.394 12.8166C52.4653 16.7117 58.1624 18.4166 61.6273 18.7834C67.2301 19.3759 72.5884 15.2793 76.6935 12.058C77.1862 11.6716 77.1134 10.8084 76.6935 10.4081C73.9406 7.78588 70.6381 5.99698 67.6724 3.64164C66.5069 2.71686 64.844 4.35646 66.0226 5.2915Z" fill="#4499FF"/>
<path d="M73.7759 13.1537C74.4618 16.3844 75.5881 19.4993 75.6665 22.8327C75.702 24.3341 78.0349 24.3379 77.9995 22.8327C77.9155 19.2838 76.7556 15.9738 76.0249 12.5332C75.7123 11.0616 73.4642 11.6859 73.7759 13.1537Z" fill="#4499FF"/>
<path d="M54.563 16.7651C53.207 19.2427 52.5081 21.9359 52.7908 24.7653C52.9383 26.2471 55.2731 26.2621 55.1238 24.7653C54.8802 22.325 55.4037 20.0872 56.5777 17.9428C57.3 16.6233 55.2852 15.4456 54.563 16.7651Z" fill="#4499FF"/>
<path d="M53.3688 25.7721C56.4539 27.3501 59.4942 29.558 62.9927 30.0796C64.4634 30.2989 65.0961 28.0509 63.6123 27.8298C60.3089 27.338 57.4627 25.2495 54.5465 23.7583C53.2092 23.0743 52.0288 25.0871 53.3688 25.7721Z" fill="#4499FF"/>
<path d="M63.8901 29.962C66.5786 28.4493 69.4341 27.2045 71.8585 25.2681C73.0343 24.3293 71.3723 22.6898 70.2086 23.6183C67.9587 25.4146 65.2077 26.5428 62.7124 27.9473C61.4022 28.6845 62.578 30.7011 63.8901 29.962Z" fill="#4499FF"/>
<path d="M72.1588 24.1323C71.6847 21.4606 70.6657 18.7918 70.5901 16.065C70.5481 14.5635 68.2152 14.5598 68.2572 16.065C68.3393 19.012 69.3975 21.8694 69.9098 24.7529C70.172 26.2329 72.4201 25.6039 72.1588 24.1323Z" fill="#4499FF"/>
<path d="M62.1768 29.2647C64.0824 38.8466 66.3649 48.1308 67.3812 57.8666C67.8468 62.3225 69.171 68.5543 63.9583 70.3703C60.9114 71.4331 57.6351 71.6319 54.4744 72.1535C42.1275 74.1907 28.4769 76.5777 16.033 74.1953C13.8045 73.7689 11.4977 73.0326 9.88425 71.3715C7.38426 68.7978 8.51248 62.3487 7.60916 58.8856C6.04515 52.8909 4.21612 47.3161 3.57782 41.1012C3.01232 35.5935 2.74263 28.4025 5.64855 23.5042C9.46712 17.0662 21.8075 18.9233 28.0729 18.4278C37.177 17.7073 46.4602 16.9879 55.5699 17.9584C57.0658 18.1179 57.0499 15.7831 55.5699 15.6254C44.9737 14.4963 34.4315 15.9502 23.8474 16.3421C16.8411 16.6015 8.32024 16.1191 3.63381 22.3275C0.697096 26.2179 0.972384 33.0758 1.03677 37.6549C1.12636 44.0444 2.61105 50.1362 4.42142 56.2177C5.38539 59.4558 6.01995 62.4681 6.15153 65.8471C6.22339 67.6948 6.37923 69.7376 7.19669 71.4303C8.25212 73.6149 10.2491 74.7543 12.429 75.6166C19.1936 78.2929 27.6837 77.4671 34.7442 76.9585C42.1293 76.4275 49.3559 75.0315 56.6897 74.1683C60.3515 73.7372 64.2504 73.18 67.4997 71.3445C70.3216 69.7488 70.1341 65.1333 70.0809 62.4205C69.8541 50.9088 66.6542 39.8535 64.4249 28.6442C64.1328 27.1698 61.8847 27.795 62.1768 29.2647Z" fill="#4499FF"/>
<path d="M30.5591 35.0756C29.848 42.0362 29.3254 49.1899 31.2449 56.0059C31.453 56.7431 32.2985 57.0697 32.9583 56.703C38.673 53.5376 44.8124 50.7707 49.3057 45.8874C49.7424 45.4124 49.7602 44.7098 49.3057 44.2376C44.5866 39.33 38.4818 35.2856 32.3134 32.4581C30.9557 31.8357 29.7696 33.8457 31.1358 34.4719C37.1464 37.2276 43.0637 41.1114 47.6558 45.8865C47.6558 45.3369 47.6558 44.7863 47.6558 44.2366C43.3035 48.9651 37.3143 51.6218 31.7806 54.6873C32.3517 54.9197 32.9228 55.152 33.4939 55.3844C31.6313 48.7756 32.2015 41.8178 32.8911 35.0738C33.045 33.5788 30.7102 33.5938 30.5591 35.0756Z" fill="#4499FF"/>
</svg>
